<?xml version="1.0" standalone="no"?><!DOCTYPE svg PUBLIC "-//W3C//DTD SVG 1.1//EN" "http://www.w3.org/Graphics/SVG/1.1/DTD/svg11.dtd"><svg t="1640670073770" class="icon" viewBox="0 0 1024 1024" version="1.1" xmlns="http://www.w3.org/2000/svg" p-id="2203" width="32" height="32" xmlns:xlink="http://www.w3.org/1999/xlink"><defs><style type="text/css"></style></defs><path d="M501.333333 64c34.837333 0 69.162667 3.882667 102.570667 11.52a32 32 0 1 1-14.250667 62.4A396.032 396.032 0 0 0 501.333333 128C283.370667 128 106.666667 304.704 106.666667 522.666667S283.370667 917.333333 501.333333 917.333333 896 740.629333 896 522.666667c0-29.525333-3.242667-58.624-9.6-86.912a32 32 0 1 1 62.442667-14.037334c7.402667 32.896 11.157333 66.688 11.157333 100.949334C960 775.978667 754.645333 981.333333 501.333333 981.333333S42.666667 775.978667 42.666667 522.666667 248.021333 64 501.333333 64z m0 245.333333a32 32 0 0 1 0 64 149.333333 149.333333 0 1 0 149.333334 149.333334 32 32 0 0 1 64 0c0 117.824-95.509333 213.333333-213.333334 213.333333s-213.333333-95.509333-213.333333-213.333333 95.509333-213.333333 213.333333-213.333334zM824.213333 48.917333a21.333333 21.333333 0 0 1 5.162667 8.32l31.061333 93.034667a21.333333 21.333333 0 0 0 13.482667 13.504l92.778667 30.869333a21.333333 21.333333 0 0 1 8.32 35.306667l-147.242667 147.285333a21.333333 21.333333 0 0 1-21.845333 5.141334l-89.258667-29.824-139.584 139.605333a32 32 0 1 1-45.269333-45.269333l139.498666-139.477334-29.738666-89.386666a21.333333 21.333333 0 0 1 5.162666-21.802667l147.306667-147.306667a21.333333 21.333333 0 0 1 30.165333 0z m-48.789333 109.141334l-64.810667 64.789333 22.570667 67.776 67.968 22.72 64.704-64.704-27.221333-9.066667a85.333333 85.333333 0 0 1-52.266667-49.237333l-1.728-4.693333-9.216-27.584z" fill="#d81e06" p-id="2204"></path></svg>